<svg width="512" height="512" viewBox="0 0 512 512" fill="none" xmlns="http://www.w3.org/2000/svg">
  <!-- Background circle with gradient -->
  <defs>
    <linearGradient id="bgGradient" x1="0%" y1="0%" x2="100%" y2="100%">
      <stop offset="0%" style="stop-color:#3B82F6;stop-opacity:1" />
      <stop offset="50%" style="stop-color:#6366F1;stop-opacity:1" />
      <stop offset="100%" style="stop-color:#8B5CF6;stop-opacity:1" />
    </linearGradient>
    <linearGradient id="nodeGradient" x1="0%" y1="0%" x2="100%" y2="100%">
      <stop offset="0%" style="stop-color:#FBBF24;stop-opacity:1" />
      <stop offset="100%" style="stop-color:#F59E0B;stop-opacity:1" />
    </linearGradient>
    <filter id="glow">
      <feGaussianBlur stdDeviation="3" result="coloredBlur"/>
      <feMerge> 
        <feMergeNode in="coloredBlur"/>
        <feMergeNode in="SourceGraphic"/>
      </feMerge>
    </filter>
  </defs>
  
  <!-- Background with shadow -->
  <circle cx="256" cy="256" r="240" fill="url(#bgGradient)" stroke="#1E40AF" stroke-width="8" filter="url(#glow)"/>
  
  <!-- Tree/Graph structure representing DSA -->
  <!-- Root node -->
  <circle cx="256" cy="150" r="40" fill="url(#nodeGradient)" stroke="#FFFFFF" stroke-width="6"/>
  
  <!-- Level 2 nodes -->
  <circle cx="180" cy="250" r="35" fill="url(#nodeGradient)" stroke="#FFFFFF" stroke-width="6"/>
  <circle cx="332" cy="250" r="35" fill="url(#nodeGradient)" stroke="#FFFFFF" stroke-width="6"/>
  
  <!-- Level 3 nodes -->
  <circle cx="120" cy="350" r="30" fill="url(#nodeGradient)" stroke="#FFFFFF" stroke-width="6"/>
  <circle cx="240" cy="350" r="30" fill="url(#nodeGradient)" stroke="#FFFFFF" stroke-width="6"/>
  <circle cx="392" cy="350" r="30" fill="url(#nodeGradient)" stroke="#FFFFFF" stroke-width="6"/>
  
  <!-- Additional leaf nodes for complexity -->
  <circle cx="80" cy="420" r="25" fill="url(#nodeGradient)" stroke="#FFFFFF" stroke-width="4"/>
  <circle cx="160" cy="420" r="25" fill="url(#nodeGradient)" stroke="#FFFFFF" stroke-width="4"/>
  <circle cx="320" cy="420" r="25" fill="url(#nodeGradient)" stroke="#FFFFFF" stroke-width="4"/>
  <circle cx="440" cy="420" r="25" fill="url(#nodeGradient)" stroke="#FFFFFF" stroke-width="4"/>
  
  <!-- Connections/Edges -->
  <line x1="256" y1="190" x2="180" y2="215" stroke="#FFFFFF" stroke-width="8" stroke-linecap="round"/>
  <line x1="256" y1="190" x2="332" y2="215" stroke="#FFFFFF" stroke-width="8" stroke-linecap="round"/>
  <line x1="180" y1="285" x2="120" y2="320" stroke="#FFFFFF" stroke-width="8" stroke-linecap="round"/>
  <line x1="180" y1="285" x2="240" y2="320" stroke="#FFFFFF" stroke-width="8" stroke-linecap="round"/>
  <line x1="332" y1="285" x2="392" y2="320" stroke="#FFFFFF" stroke-width="8" stroke-linecap="round"/>
  <line x1="120" y1="380" x2="80" y2="395" stroke="#FFFFFF" stroke-width="6" stroke-linecap="round"/>
  <line x1="120" y1="380" x2="160" y2="395" stroke="#FFFFFF" stroke-width="6" stroke-linecap="round"/>
  <line x1="392" y1="380" x2="320" y2="395" stroke="#FFFFFF" stroke-width="6" stroke-linecap="round"/>
  <line x1="392" y1="380" x2="440" y2="395" stroke="#FFFFFF" stroke-width="6" stroke-linecap="round"/>
  
  <!-- Algorithm flow indicators -->
  <path d="M60 60 L120 60 L100 100 Z" fill="#FFFFFF" opacity="0.8"/>
  <path d="M452 60 L392 60 L412 100 Z" fill="#FFFFFF" opacity="0.8"/>
  
  <!-- Data structure symbols -->
  <!-- Array representation -->
  <rect x="380" y="120" width="80" height="15" fill="#FFFFFF" opacity="0.6" rx="3"/>
  <rect x="380" y="140" width="80" height="15" fill="#FFFFFF" opacity="0.6" rx="3"/>
  <rect x="380" y="160" width="80" height="15" fill="#FFFFFF" opacity="0.6" rx="3"/>
  
  <!-- Stack representation -->
  <rect x="60" y="140" width="60" height="12" fill="#FFFFFF" opacity="0.6" rx="2"/>
  <rect x="60" y="155" width="60" height="12" fill="#FFFFFF" opacity="0.6" rx="2"/>
  <rect x="60" y="170" width="60" height="12" fill="#FFFFFF" opacity="0.6" rx="2"/>
  <rect x="60" y="185" width="60" height="12" fill="#FFFFFF" opacity="0.6" rx="2"/>
</svg>
