<svg width="32" height="32" viewBox="0 0 32 32" fill="none" xmlns="http://www.w3.org/2000/svg">
  <!-- Background circle with gradient -->
  <defs>
    <linearGradient id="bgGradient" x1="0%" y1="0%" x2="100%" y2="100%">
      <stop offset="0%" style="stop-color:#3B82F6;stop-opacity:1" />
      <stop offset="100%" style="stop-color:#8B5CF6;stop-opacity:1" />
    </linearGradient>
    <linearGradient id="nodeGradient" x1="0%" y1="0%" x2="100%" y2="100%">
      <stop offset="0%" style="stop-color:#FBBF24;stop-opacity:1" />
      <stop offset="100%" style="stop-color:#F59E0B;stop-opacity:1" />
    </linearGradient>
  </defs>
  
  <!-- Background -->
  <circle cx="16" cy="16" r="15" fill="url(#bgGradient)" stroke="#1E40AF" stroke-width="2"/>
  
  <!-- Tree/Graph structure representing DSA -->
  <!-- Root node -->
  <circle cx="16" cy="8" r="3" fill="url(#nodeGradient)" stroke="#FFFFFF" stroke-width="1.5"/>
  
  <!-- Level 2 nodes -->
  <circle cx="10" cy="16" r="2.5" fill="url(#nodeGradient)" stroke="#FFFFFF" stroke-width="1.5"/>
  <circle cx="22" cy="16" r="2.5" fill="url(#nodeGradient)" stroke="#FFFFFF" stroke-width="1.5"/>
  
  <!-- Level 3 nodes -->
  <circle cx="6" cy="24" r="2" fill="url(#nodeGradient)" stroke="#FFFFFF" stroke-width="1.5"/>
  <circle cx="14" cy="24" r="2" fill="url(#nodeGradient)" stroke="#FFFFFF" stroke-width="1.5"/>
  <circle cx="26" cy="24" r="2" fill="url(#nodeGradient)" stroke="#FFFFFF" stroke-width="1.5"/>
  
  <!-- Connections/Edges -->
  <line x1="16" y1="11" x2="10" y2="13.5" stroke="#FFFFFF" stroke-width="2" stroke-linecap="round"/>
  <line x1="16" y1="11" x2="22" y2="13.5" stroke="#FFFFFF" stroke-width="2" stroke-linecap="round"/>
  <line x1="10" y1="18.5" x2="6" y2="22" stroke="#FFFFFF" stroke-width="2" stroke-linecap="round"/>
  <line x1="10" y1="18.5" x2="14" y2="22" stroke="#FFFFFF" stroke-width="2" stroke-linecap="round"/>
  <line x1="22" y1="18.5" x2="26" y2="22" stroke="#FFFFFF" stroke-width="2" stroke-linecap="round"/>
  
  <!-- Algorithm flow arrows (subtle) -->
  <path d="M4 4 L7 4 L6 6 Z" fill="#FFFFFF" opacity="0.7"/>
  <path d="M28 4 L25 4 L26 6 Z" fill="#FFFFFF" opacity="0.7"/>
</svg>
